<svg width="130" height="130" viewBox="0 0 130 130" fill="none" xmlns="http://www.w3.org/2000/svg">
<path d="M129.51 65.16C129.51 82.3063 122.699 98.7502 110.574 110.874C98.4502 122.999 82.0062 129.81 64.86 129.81C47.7137 129.81 31.2697 122.999 19.1455 110.874C7.02128 98.7502 0.209961 82.3063 0.209961 65.16C0.209961 48.0138 7.02128 31.5698 19.1455 19.4456C31.2697 7.32133 47.7137 0.51001 64.86 0.51001C82.0062 0.51001 98.4502 7.32133 110.574 19.4456C122.699 31.5698 129.51 48.0138 129.51 65.16ZM117.91 65.16C117.91 51.0876 112.32 37.5916 102.369 27.6409C92.4184 17.6902 78.9223 12.1 64.85 12.1C50.7776 12.1 37.2816 17.6902 27.3309 27.6409C17.3802 37.5916 11.79 51.0876 11.79 65.16C11.79 79.2324 17.3802 92.7284 27.3309 102.679C37.2816 112.63 50.7776 118.22 64.85 118.22C71.8179 118.22 78.7176 116.848 85.1551 114.181C91.5927 111.515 97.442 107.606 102.369 102.679C107.296 97.752 111.204 91.9027 113.871 85.4652C116.538 79.0276 117.91 72.128 117.91 65.16Z" fill="#FF830A"/>
<path d="M100.08 65.24C100.08 74.5809 96.3693 83.5393 89.7643 90.1443C83.1593 96.7493 74.2009 100.46 64.86 100.46C55.5191 100.46 46.5607 96.7493 39.9557 90.1443C33.3507 83.5393 29.64 74.5809 29.64 65.24C29.64 55.8991 33.3507 46.9407 39.9557 40.3357C46.5607 33.7307 55.5191 30.02 64.86 30.02C74.2009 30.02 83.1593 33.7307 89.7643 40.3357C96.3693 46.9407 100.08 55.8991 100.08 65.24ZM88.49 65.22C88.49 58.9529 86.0004 52.9425 81.5689 48.5111C77.1375 44.0796 71.1271 41.59 64.86 41.59C58.593 41.59 52.5826 44.0796 48.1511 48.5111C43.7196 52.9425 41.23 58.9529 41.23 65.22C41.23 71.4871 43.7196 77.4974 48.1511 81.9289C52.5826 86.3604 58.593 88.85 64.86 88.85C71.1271 88.85 77.1375 86.3604 81.5689 81.9289C86.0004 77.4974 88.49 71.4871 88.49 65.22Z" fill="#FF830A"/>
<path d="M64.8499 75.74C70.6655 75.74 75.3799 71.0256 75.3799 65.21C75.3799 59.3944 70.6655 54.68 64.8499 54.68C59.0344 54.68 54.3199 59.3944 54.3199 65.21C54.3199 71.0256 59.0344 75.74 64.8499 75.74Z" fill="#FF830A"/>
</svg>
